{
  "accessors": [
    {
      "bufferView": 2,
      "componentType": 5126,
      "count": 9935,
      "max": [
        1.5266952514648438,
        3.3040273189544678,
        1.4903193712234497
      ],
      "min": [
        -1.529526948928833,
        -3.1248674392700195,
        -1.5659024715423584
      ],
      "type": "VEC3"
    },
    {
      "bufferView": 2,
      "byteOffset": 119220,
      "componentType": 5126,
      "count": 9935,
      "max": [
        1.0,
        1.0,
        1.0
      ],
      "min": [
        -1.0,
        -1.0,
        -1.0
      ],
      "type": "VEC3"
    },
    {
      "bufferView": 3,
      "componentType": 5126,
      "count": 9935,
      "max": [
        1.0,
        1.0,
        1.0,
        1.0
      ],
      "min": [
        -1.0,
        -1.0,
        -1.0,
        -1.0
      ],
      "type": "VEC4"
    },
    {
      "bufferView": 1,
      "componentType": 5126,
      "count": 9935,
      "max": [
        0.4961000084877014,
        0.8693000078201294
      ],
      "min": [
        0.05894999951124191,
        0.00700002908706665
      ],
      "type": "VEC2"
    },
    {
      "bufferView": 1,
      "byteOffset": 79480,
      "componentType": 5126,
      "count": 9935,
      "max": [
        0.4961000084877014,
        0.8693000078201294
      ],
      "min": [
        0.05894999951124191,
        0.00700002908706665
      ],
      "type": "VEC2"
    },
    {
      "bufferView": 0,
      "componentType": 5125,
      "count": 38544,
      "type": "SCALAR"
    }
  ],
  "asset": {
    "extras": {
      "author": "QuickDriftVR (https://sketchfab.com/QuickDriftVR)",
      "license": "CC-BY-4.0 (http://creativecommons.org/licenses/by/4.0/)",
      "source": "https://sketchfab.com/3d-models/astro-strider-cannon-b67784c6c9f54fb8a64cdd8324a73476",
      "title": "Astro Strider Cannon"
    },
    "generator": "Sketchfab-16.21.0",
    "version": "2.0"
  },
  "bufferViews": [
    {
      "buffer": 0,
      "byteLength": 154176,
      "name": "floatBufferViews",
      "target": 34963
    },
    {
      "buffer": 0,
      "byteLength": 158960,
      "byteOffset": 154176,
      "byteStride": 8,
      "name": "floatBufferViews",
      "target": 34962
    },
    {
      "buffer": 0,
      "byteLength": 238440,
      "byteOffset": 313136,
      "byteStride": 12,
      "name": "floatBufferViews",
      "target": 34962
    },
    {
      "buffer": 0,
      "byteLength": 158960,
      "byteOffset": 551576,
      "byteStride": 16,
      "name": "floatBufferViews",
      "target": 34962
    }
  ],
  "buffers": [
    {
      "byteLength": 710536,
      "uri": "scene.bin"
    }
  ],
  "images": [
    {
      "uri": "textures/Astro_Strider_Cannon_Texture_baseColor.png"
    },
    {
      "uri": "textures/Astro_Strider_Cannon_Texture_normal.png"
    }
  ],
  "materials": [
    {
      "doubleSided": true,
      "name": "Astro_Strider_Cannon_Texture",
      "normalTexture": {
        "index": 1
      },
      "pbrMetallicRoughness": {
        "baseColorTexture": {
          "index": 0
        },
        "metallicFactor": 0.0,
        "roughnessFactor": 0.6
      }
    }
  ],
  "meshes": [
    {
      "name": "Astro_Strider_Cannon_Astro_Strider_Cannon_Texture_0",
      "primitives": [
        {
          "attributes": {
            "NORMAL": 1,
            "POSITION": 0,
            "TANGENT": 2,
            "TEXCOORD_0": 3,
            "TEXCOORD_1": 4
          },
          "indices": 5,
          "material": 0,
          "mode": 4
        }
      ]
    }
  ],
  "nodes": [
    {
      "children": [
        1
      ],
      "matrix": [
        1.0,
        0.0,
        0.0,
        0.0,
        0.0,
        2.220446049250313e-16,
        -1.0,
        0.0,
        0.0,
        1.0,
        2.220446049250313e-16,
        0.0,
        0.0,
        0.0,
        0.0,
        1.0
      ],
      "name": "Sketchfab_model"
    },
    {
      "children": [
        2
      ],
      "matrix": [
        0.009999999776482582,
        0.0,
        0.0,
        0.0,
        0.0,
        0.0,
        0.009999999776482582,
        0.0,
        0.0,
        -0.009999999776482582,
        0.0,
        0.0,
        0.0,
        0.0,
        0.0,
        1.0
      ],
      "name": "af0bb77ea17746a8853a273003fd2017.fbx"
    },
    {
      "children": [
        3
      ],
      "name": "RootNode"
    },
    {
      "children": [
        4
      ],
      "matrix": [
        100.0,
        0.0,
        0.0,
        0.0,
        0.0,
        0.034514561775649294,
        -99.99997878493498,
        0.0,
        0.0,
        99.99997878493498,
        0.034514561775649294,
        0.0,
        0.0,
        0.0,
        0.0,
        1.0
      ],
      "name": "Astro_Strider_Cannon"
    },
    {
      "mesh": 0,
      "name": "Astro_Strider_Cannon_Astro_Strider_Cannon_Texture_0"
    }
  ],
  "samplers": [
    {
      "magFilter": 9729,
      "minFilter": 9987,
      "wrapS": 10497,
      "wrapT": 10497
    }
  ],
  "scene": 0,
  "scenes": [
    {
      "name": "Sketchfab_Scene",
      "nodes": [
        0
      ]
    }
  ],
  "textures": [
    {
      "sampler": 0,
      "source": 0
    },
    {
      "sampler": 0,
      "source": 1
    }
  ]
}
